<?xml version="1.0" encoding="utf-8"?>
<!-- Generator: Adobe Illustrator 15.0.0, SVG Export Plug-In  -->
<!DOCTYPE svg PUBLIC "-//W3C//DTD SVG 1.1//EN" "http://www.w3.org/Graphics/SVG/1.1/DTD/svg11.dtd" [
	<!ENTITY ns_flows "http://ns.adobe.com/Flows/1.0/">
]>
<svg version="1.1"
	 xmlns="http://www.w3.org/2000/svg" xmlns:xlink="http://www.w3.org/1999/xlink" xmlns:a="http://ns.adobe.com/AdobeSVGViewerExtensions/3.0/"
	 x="0px" y="0px" width="150px" height="150px" viewBox="0 0.004 150 150" enable-background="new 0 0.004 150 150"
	 xml:space="preserve">
<defs>
</defs>
<path fill-rule="evenodd" clip-rule="evenodd" d="M121.6,0c1.457,0,2.913,0,4.37,0c5.393,2.981,14.904,1.844,20.754,4.37
	c1.581,1.696,1.458,5.097,3.277,6.554c0,3.641,0,7.282,0,10.923c-6.621,11.818-2.351,34.454-6.554,45.878
	c-8.99-15.53,7.094-44.668-3.277-57.894c-10.783-13.752-35.098,1.61-53.525-4.369C91.748-4.925,113.645,5.658,121.6,0z"/>
<path fill-rule="evenodd" clip-rule="evenodd" d="M82.275,2.185c0.139,1.959-1.337,2.304-1.092,4.369
	c-4.976-2.377-11.247,2.024-16.385-1.092C65.748-0.982,76.979,1.179,82.275,2.185z"/>
<path fill-rule="evenodd" clip-rule="evenodd" d="M84.459,99.403c5.795-4.036,2.889-16.774,8.739-20.754
	c5.23,3.636,3.288,17.345,2.185,24.032c15.165,5.954,36.859,5.377,40.416,22.938c4.377-16.377-0.64-42.15,6.554-55.709
	c2.891,19.394-0.925,48.077,4.37,69.91c-8.452,16.481-37.134,5.818-61.171,6.554c-17.007,0.521-43.856,0.053-62.263,2.185
	c-8.525,0.987-15.395,3.97-21.847-3.277c-4.555-5.626,3.23-81.225,2.185-115.788c-0.209-6.936-3.599-15.31,0-20.754
	c7.87-11.905,38.091-2.66,50.248-5.461c-8.241,8.509-32.334,1.165-42.602,7.646c-0.359,14.698-7.594,39.768-3.277,55.709
	c-6.022,20.192-5.388,50.52-2.185,74.279c38.373,4.097,88.804,2.445,125.62-2.185c3.632-1.829,4.197-6.726,5.461-10.924
	c-0.746-1.722-4.349,2.848-8.738,1.092c0.192-4.834-3.386-1.555-4.369-6.554c-12.693,7.439-25.431-1.331-31.678-9.83
	c-12.839,21.354-33.978,10.198-39.325-13.108C60.654,94.893,76.511,95.275,84.459,99.403z M60.428,105.958
	c0.975,15.75,20.363,11.14,21.847-1.092C76.444,102.631,65.038,103.415,60.428,105.958z"/>
<path fill-rule="evenodd" clip-rule="evenodd" d="M100.845,37.14c-3.142,1.228-7.362,1.377-7.646,5.462
	c-5.064-6.224-7.104-15.472-14.201-19.663C83.704,6.073,112.373,20.791,100.845,37.14z"/>
<path fill-rule="evenodd" clip-rule="evenodd" d="M47.32,25.124c-3.496,11.433-10.655,19.203-15.293,29.493
	c-9.609,0.87-14.141-3.336-18.57-7.646c0.979-2.297,1.698-4.856,3.277-6.554C30.742,42.431,33.239,26.365,47.32,25.124z"/>
<path fill-rule="evenodd" clip-rule="evenodd" d="M118.323,46.971c-15.918,5.928-34.12,13.522-45.879,24.032
	c-4.598,4.109-7.906,14.823-17.477,12.016c6.505-10.607,19.503-14.723,27.308-24.032C94.222,56.208,105.264,41.414,118.323,46.971z"
	/>
<path fill-rule="evenodd" clip-rule="evenodd" d="M36.397,75.372c0.348,2.565,1.726,4.101,1.092,7.646
	c-6.484,5.329-14.667-0.529-18.57-4.369C20.042,72.887,31.217,73.717,36.397,75.372z"/>
<path fill-rule="evenodd" clip-rule="evenodd" d="M24.381,117.973c3.166,3.824-7.4,10.694-6.554,16.385
	c-5.589-1.054-5.979-2.488-10.924,0c8.948-20.545,28.943-30.043,38.232-50.248C66.627,98.34,34.926,113.146,24.381,117.973z"/>
</svg>
