<?xml version="1.0" encoding="utf-8"?>
<!-- Generator: Adobe Illustrator 15.0.0, SVG Export Plug-In  -->
<!DOCTYPE svg PUBLIC "-//W3C//DTD SVG 1.1//EN" "http://www.w3.org/Graphics/SVG/1.1/DTD/svg11.dtd" [
	<!ENTITY ns_flows "http://ns.adobe.com/Flows/1.0/">
]>
<svg version="1.1"
	 xmlns="http://www.w3.org/2000/svg" xmlns:xlink="http://www.w3.org/1999/xlink" xmlns:a="http://ns.adobe.com/AdobeSVGViewerExtensions/3.0/"
	 x="0px" y="0px" width="408px" height="42px" viewBox="-2.2 -2.1 408 42" enable-background="new -2.2 -2.1 408 42"
	 xml:space="preserve">
<defs>
</defs>
<path d="M0,26.6h27.9L26,30.5H0V26.6z M0.4,2.4h27l-1.8,3.8H0.4V2.4z M0.5,14.3h27l-1.8,3.8H0.5V14.3z"/>
<path d="M45.8,23.1l-7.3,7.8h-6.9l10.7-11.5l-9.1-9.8h6.9l5.7,6.1l5.7-6.1h6.9l-9.1,9.8l10.7,11.5H53L45.8,23.1z M31.8,8V4.1l10.7,0
	c0.2-0.4,0.6-0.9,1-1.4s1.1-0.7,2-0.7c0.9,0,1.6,0.1,2.2,0.4s0.9,0.6,1,0.8l0.5,0.8h11.8L59,8L31.8,8z"/>
<path d="M81.5,0h2.1v37.5h-2.1V0z"/>
<path d="M123.9,6.2c-4.2-1.5-6.9-1.8-10.2-1.8c-4.1,0-7.6,1.8-7.6,5c0,3,2.6,4.3,7,5.3c5,1.2,11.8,2.9,11.8,8.4
	c0,5.7-7.8,6.8-12.1,6.8c-5.3,0-8.6-1.2-10.2-2.1v-2.4c2.3,1.3,6.1,2.7,10.2,2.7c4.9,0,8.7-2.3,8.7-5.1c0-1.7-0.4-4.5-8.2-6.2h0
	c-6.8-1.5-10.8-3.4-10.8-7.6c0-3.3,3.9-6.5,11.2-6.5c5.8,0,8.5,0.8,10.2,1.5V6.2z"/>
<path d="M145.4,29.1h-2.1l-1.5-1.3c-2.1,0.9-4,1.6-7.7,1.6c-3.5,0-5.9-1.9-5.9-5.6c0-2.9,1.7-5.5,7.2-5.5c4.6,0,5.6,0,6.9-1
	c0-5.1-1.3-5.7-5.2-5.7c-3.1,0-5.3,0.6-6.7,1.1c-0.3-0.7-0.4-1-0.8-1.6c2.1-0.7,4.8-1.2,7.7-1.2c4.3,0,8,1.4,8,7.3V29.1z
	 M142.4,19.3c-2.7,0.5-4.4,0.5-6.4,0.5c-2.2,0-4.9,0-4.9,4c0,2.8,2.3,4,5.1,4c2,0,4.2-0.8,6.1-2.2L142.4,19.3z"/>
<path d="M167.3,17.6c0-3.7-1.9-5.9-5.7-5.9c-4.1,0-7.7,2.6-7.7,5.5v11.9h-3V10.5h2.7l0.3,3.7c1.2-2.3,5.4-4.2,9.1-4.2
	c4.3,0,7.2,2.6,7.2,7.9v11.3h-2.9V17.6z"/>
<path d="M176.6,10.5l5.7,16.8c0,0,8-16.8,8-16.8h2.4l7.3,16.9l4.9-16.9h2.9L202,29.1h-3.7L191.5,12l-7.6,17.2h-3.5l-6.6-18.6H176.6z
	"/>
<path d="M227.9,25.3c1.4,0.9,1.7,1.1,2,1.3c-2.7,2.6-6,3.1-8.9,3.1c-8,0-10.4-3.7-10.6-9.5c0-6.4,3.2-10.3,10.6-10.3
	c6.1,0,9.3,3.1,9.2,9.7l-16.8,0c0,5,0.5,8.6,7.6,8.6C224.6,28.2,226.9,26.4,227.9,25.3z M227.5,18.1c0-1.8-0.6-3.2-1.5-4.5
	c-1-1.3-2.6-2-5.1-2c-5.2,0-7.2,3.2-7.2,6.5L227.5,18.1z"/>
<path d="M251.5,17.6c0-3.7-1.9-5.9-5.7-5.9c-4.1,0-7.7,2.6-7.7,5.5v11.9h-3V10.5h2.7l0.3,3.7c1.2-2.3,5.4-4.2,9.1-4.2
	c4.3,0,7.2,2.6,7.2,7.9v11.3h-2.9V17.6z"/>
<path d="M281.7,3.3c12,0,16.6,7.8,16.6,13c0,5.2-3.6,12.7-16.5,12.7h-8.1V3.3H281.7z M276.5,26.1c0,1.4,0,1.4,1.1,1.4h4.1
	c5.3,0,12.9-2.6,12.9-11.2c0-8.2-7.7-11.4-12.9-11.4c-4.1,0-5.2,0-5.2,0.3V26.1z"/>
<path d="M320,25.3c1.4,0.9,1.7,1.1,2,1.3c-2.7,2.6-6,3.1-8.9,3.1c-8,0-10.4-3.7-10.6-9.5c0-6.4,3.2-10.3,10.6-10.3
	c6.1,0,9.3,3.1,9.2,9.7l-16.8,0c0,5,0.5,8.6,7.6,8.6C316.7,28.2,319,26.4,320,25.3z M319.7,18.1c0-1.8-0.6-3.2-1.5-4.5
	c-1-1.3-2.6-2-5.1-2c-5.2,0-7.2,3.2-7.2,6.5L319.7,18.1z"/>
<path d="M342.8,11.8c0,0.5,0,1.3,0,1.7c-2.9-1-5.6-1.9-8.7-1.9c-2.4,0-4.9,0.4-4.9,3.2c0,2.3,1.7,2.8,5.3,3.5
	c6.3,1.3,9.4,2.9,9.4,5.8c0,3.5-3.7,5.5-9.2,5.5c-4.7,0-8.1-1.5-9.2-2.1c0-0.8,0-1.5,0-2.3c2.7,1.3,5.8,2.6,9.2,2.6
	c3.2,0,6.1-0.7,6.1-3.7c0-2.4-3.9-3.3-8.4-4.2c-4.9-1.2-6.4-2.7-6.4-5.1c0-1.7,1.4-4.6,8.1-4.6C338.2,10.1,341.1,11.2,342.8,11.8z"
	/>
<path d="M348.2,3.5V0.5h3.8v3.1H348.2z M349,10.5h3.1v18.6H349V10.5z"/>
<path d="M378.3,10.5v18.9c0,1.2,0,7.8-10.6,7.8c-4,0-6.8-1.3-9-3.3l1.8-1.2c0.6,0.5,1.4,1,2.1,1.4c1.3,0.7,3.1,1.4,5.1,1.4
	c7.7,0,7.6-5,7.6-6.2V27c-1.8,2-3.6,2.8-7.1,2.8c-8.1,0-10.8-4.9-10.8-10.2c0-6.2,2.7-9.7,10.4-9.7c4.5,0,6.5,1.1,8.3,3.3l0.2-2.7
	H378.3z M368.2,28.1c2.6,0,7.2-0.3,7.2-8.5c0-7.9-4.3-8-7.3-8c-3.1,0-7.7-0.1-7.7,8C360.4,27.4,364.9,28.1,368.2,28.1z"/>
<path d="M400.5,17.6c0-3.7-1.9-5.9-5.7-5.9c-4.1,0-7.7,2.6-7.7,5.5v11.9h-3V10.5h2.7l0.3,3.7c1.2-2.3,5.4-4.2,9.1-4.2
	c4.3,0,7.2,2.6,7.2,7.9v11.3h-2.9V17.6z"/>
</svg>
