<?xml version="1.0" encoding="utf-8"?>
<!-- Generator: Adobe Illustrator 15.0.0, SVG Export Plug-In  -->
<!DOCTYPE svg PUBLIC "-//W3C//DTD SVG 1.1//EN" "http://www.w3.org/Graphics/SVG/1.1/DTD/svg11.dtd" [
	<!ENTITY ns_flows "http://ns.adobe.com/Flows/1.0/">
]>
<svg version="1.1"
	 xmlns="http://www.w3.org/2000/svg" xmlns:xlink="http://www.w3.org/1999/xlink" xmlns:a="http://ns.adobe.com/AdobeSVGViewerExtensions/3.0/"
	 x="0px" y="0px" width="410px" height="40px" viewBox="-2.109 0 410 40" enable-background="new -2.109 0 410 40"
	 xml:space="preserve">
<defs>
</defs>
<path d="M17.895,5.952c-3.504-1.62-5.802-1.883-8.552-1.883c-3.428,0-6.367,1.883-6.367,5.199c0,3.165,2.147,4.521,5.877,5.538
	c4.182,1.281,9.871,3.052,9.871,8.778c0,5.915-6.555,7.158-10.172,7.158c-4.408,0-7.233-1.281-8.552-2.185V26.07
	c1.884,1.394,5.086,2.863,8.552,2.863c4.106,0,7.309-2.374,7.309-5.35c0-1.733-0.339-4.709-6.895-6.442h0.038
	C3.277,15.521,0,13.563,0,9.23c0-3.504,3.24-6.781,9.381-6.781c4.897,0,7.083,0.866,8.514,1.582V5.952z"/>
<path d="M35.862,29.988h-1.771l-1.243-1.394c-1.733,0.904-3.353,1.658-6.442,1.658c-2.901,0-4.935-2.034-4.935-5.839
	c0-3.014,1.394-5.764,6.065-5.764c3.843,0,4.709,0,5.802-1.017c0-5.35-1.092-5.915-4.37-5.915c-2.6,0-4.408,0.678-5.576,1.13
	c-0.264-0.716-0.339-1.017-0.641-1.658c1.771-0.753,4.031-1.281,6.442-1.281c3.617,0,6.668,1.432,6.668,7.61V29.988z M33.413,19.703
	c-2.26,0.565-3.654,0.565-5.35,0.565c-1.808,0-4.106-0.038-4.106,4.182c0,2.901,1.884,4.182,4.257,4.182
	c1.658,0,3.503-0.791,5.124-2.335L33.413,19.703z"/>
<path d="M40.944,29.988V0.075h2.487v29.913H40.944z"/>
<path d="M71.873,17.556c0-3.503-0.452-5.802-3.504-5.802c-3.805,0-5.5,3.165-5.5,6.179v12.056h-2.562V17.933
	c0-3.956-0.716-6.179-3.428-6.179c-3.805,0-5.5,3.956-5.5,6.819v11.415h-2.486V10.511h2.223l0.226,4.144
	c1.017-3.051,3.353-4.747,6.668-4.747c2.147,0,3.617,1.394,4.521,4.747c1.093-2.486,3.315-4.747,7.007-4.747
	c3.165,0,4.634,2.335,4.634,7.912l0.113,12.168h-2.411V17.556z"/>
<path d="M95.752,20.155c0,6.819-1.959,10.474-8.854,10.474s-9.23-4.898-9.23-10.474c0-6.555,2.26-10.247,8.815-10.247
	C93.717,9.908,95.752,14.542,95.752,20.155z M86.898,28.896c2.185,0,6.028-0.038,6.028-8.74c0-8.439-3.88-8.514-6.442-8.514
	c-2.6,0-6.216-0.113-6.216,8.514C80.268,28.406,84.073,28.896,86.898,28.896z"/>
<path d="M113.794,17.933c0-3.918-1.583-6.141-4.747-6.141c-3.428,0-6.442,2.712-6.442,5.726v12.47h-2.486V10.473h2.223l0.226,3.88
	c0.979-2.374,4.559-4.445,7.61-4.445c3.579,0,6.028,2.675,6.028,8.288v11.792h-2.411V17.933z"/>
<path d="M132.7,3.051h2.411v26.937H132.7V3.051z"/>
<path d="M155.34,17.933c0-3.918-1.583-6.141-4.747-6.141c-3.428,0-6.442,2.712-6.442,5.726v12.47h-2.486V10.473h2.223l0.226,3.88
	c0.979-2.374,4.559-4.445,7.61-4.445c3.579,0,6.028,2.675,6.028,8.288v11.792h-2.411V17.933z"/>
<path d="M164.491,10.473c0.264-1.808,0.49-3.918,0.753-5.764h1.695v5.764h5.048v1.62h-5.048v12.658c0,3.353,0.301,3.843,2.223,3.843
	c1.055,0,2.034-0.264,2.75-0.603v1.884c-1.771,0.414-2.825,0.565-3.692,0.565c-2.374,0-3.692-0.753-3.692-4.37V12.093h-3.843v-1.62
	H164.491z"/>
<path d="M189.315,25.995c1.168,0.904,1.394,1.13,1.658,1.319c-2.298,2.712-5.011,3.278-7.422,3.278c-6.706,0-8.74-3.843-8.854-9.909
	c0-6.744,2.713-10.737,8.854-10.737c5.124,0,7.761,3.24,7.723,10.134l-14.09-0.038c0,5.274,0.376,9.004,6.367,9.004
	C186.603,29.046,188.524,27.163,189.315,25.995z M189.052,18.46c-0.038-1.846-0.49-3.391-1.243-4.709
	c-0.867-1.356-2.147-2.072-4.257-2.072c-4.37,0-6.065,3.315-6.065,6.819L189.052,18.46z"/>
<path d="M195.264,29.988V10.511h2.072l0.527,4.295c1.017-2.6,2.26-4.86,5.463-4.86c1.62,0,2.524,0.301,3.014,0.49l-0.15,2.072
	c-1.47-0.452-1.997-0.603-2.863-0.603c-2.562,0-5.463,2.223-5.463,8.74v9.343H195.264z"/>
<path d="M221.972,29.988h-1.771l-1.243-1.394c-1.733,0.904-3.353,1.658-6.442,1.658c-2.901,0-4.935-2.034-4.935-5.839
	c0-3.014,1.394-5.764,6.065-5.764c3.843,0,4.709,0,5.802-1.017c0-5.35-1.092-5.915-4.37-5.915c-2.6,0-4.408,0.678-5.576,1.13
	c-0.264-0.716-0.339-1.017-0.641-1.658c1.771-0.753,4.031-1.281,6.442-1.281c3.617,0,6.668,1.432,6.668,7.61V29.988z
	 M219.523,19.703c-2.26,0.565-3.654,0.565-5.35,0.565c-1.808,0-4.106-0.038-4.106,4.182c0,2.901,1.884,4.182,4.257,4.182
	c1.658,0,3.503-0.791,5.124-2.335L219.523,19.703z"/>
<path d="M240.09,10.473h2.524l0.151,19.063c-4.031,0.867-6.254,1.017-7.271,1.017c-2.712,0-7.271-0.188-7.271-5.764V12.093h-3.767
	v-1.62h3.729l0.753-5.764h1.771v5.764h5.01v1.62h-5.01v12.696c0,3.843,4.445,3.843,5.726,3.843c0.753,0,2.411-0.188,3.654-0.753
	V10.473z M239.487,3.24V0.038h3.127V3.24H239.487z"/>
<path d="M248.035,10.473l6.744,17.292c0.038,0,7.384-17.217,7.233-17.292h2.524l-8.514,19.515h-2.374l-8.213-19.515H248.035z"/>
<path d="M281.448,25.995c1.168,0.904,1.394,1.13,1.658,1.319c-2.298,2.712-5.011,3.278-7.422,3.278c-6.706,0-8.74-3.843-8.854-9.909
	c0-6.744,2.713-10.737,8.854-10.737c5.124,0,7.761,3.24,7.723,10.134l-14.09-0.038c0,5.274,0.376,9.004,6.367,9.004
	C278.736,29.046,280.657,27.163,281.448,25.995z M281.185,18.46c-0.038-1.846-0.49-3.391-1.243-4.709
	c-0.867-1.356-2.147-2.072-4.257-2.072c-4.37,0-6.065,3.315-6.065,6.819L281.185,18.46z"/>
<path d="M305.327,3.014c10.059,0,13.864,8.175,13.864,13.601c0,5.462-2.976,13.336-13.826,13.336h-6.819V3.014H305.327z
	 M300.995,26.861c0,1.432,0.038,1.469,0.941,1.469h3.429c4.408,0,10.813-2.712,10.813-11.716c0-8.627-6.405-11.98-10.813-11.98
	c-3.429,0-4.37,0.038-4.37,0.301V26.861z"/>
<path d="M337.383,25.995c1.168,0.904,1.394,1.13,1.658,1.319c-2.298,2.712-5.011,3.278-7.422,3.278c-6.706,0-8.74-3.843-8.854-9.909
	c0-6.744,2.713-10.737,8.854-10.737c5.124,0,7.761,3.24,7.723,10.134l-14.09-0.038c0,5.274,0.376,9.004,6.367,9.004
	C334.671,29.046,336.592,27.163,337.383,25.995z M337.12,18.46c-0.038-1.846-0.49-3.391-1.243-4.709
	c-0.867-1.356-2.147-2.072-4.257-2.072c-4.37,0-6.065,3.315-6.065,6.819L337.12,18.46z"/>
<path d="M356.48,11.867c0,0.565,0.038,1.318,0.038,1.808c-2.449-1.055-4.709-1.997-7.271-1.997c-1.997,0-4.069,0.452-4.069,3.353
	c0,2.411,1.394,2.901,4.408,3.692c5.312,1.319,7.912,3.014,7.912,6.065c0,3.617-3.127,5.764-7.723,5.764
	c-3.918,0-6.781-1.544-7.723-2.185c0-0.866,0.038-1.582,0.038-2.449c2.298,1.356,4.86,2.75,7.686,2.75
	c2.675,0,5.086-0.754,5.086-3.881c0-2.562-3.24-3.428-7.007-4.445c-4.144-1.206-5.35-2.788-5.35-5.387c0-1.809,1.13-4.86,6.744-4.86
	C352.675,10.096,355.086,11.264,356.48,11.867z"/>
<path d="M360.998,3.202V0h3.202v3.202H360.998z M361.638,10.473h2.562v19.515h-2.562V10.473z"/>
<path d="M386.199,10.473v19.741c0,1.243-0.038,8.175-8.853,8.175c-3.353,0-5.727-1.319-7.535-3.428l1.507-1.206
	c0.527,0.565,1.13,1.055,1.771,1.507c1.093,0.753,2.562,1.469,4.257,1.469c6.48,0,6.367-5.274,6.367-6.518v-2.449
	c-1.469,2.072-2.976,2.938-5.953,2.938c-6.819,0-9.079-5.086-9.079-10.624c0-6.48,2.223-10.172,8.703-10.172
	c3.805,0,5.425,1.13,6.932,3.428l0.188-2.863H386.199z M377.76,28.971c2.186,0,5.99-0.301,5.99-8.891
	c0-8.288-3.579-8.401-6.103-8.401c-2.6,0-6.442-0.151-6.442,8.401C371.205,28.218,375.01,28.971,377.76,28.971z"/>
<path d="M404.769,17.933c0-3.918-1.583-6.141-4.747-6.141c-3.428,0-6.442,2.712-6.442,5.726v12.47h-2.486V10.473h2.223l0.226,3.88
	c0.979-2.374,4.559-4.445,7.61-4.445c3.579,0,6.028,2.675,6.028,8.288v11.792h-2.411V17.933z"/>
</svg>
